[2026-06-21T14:45:00.150Z] extract-floor START: ffmpeg -y -ss 0 -i /Users/edrlu/Documents/Cerebra/regen/sources/source_1782053033981_afv1gg/source.mp4 -t 5 -c:v libx264 -pix_fmt yuv420p -preset veryfast -crf 20 -c:a aac -movflags +faststart /Users/edrlu/Documents/Cerebra/data/2026-06-21T14-45-00-067Z/.floor.91808.ayndb.tmp.mp4
[2026-06-21T14:45:01.470Z] extract-floor OK in 1.32s
stderr:
eam #0:0[0x1](und): Video: av1 (libdav1d) (Main) (av01 / 0x31307661), yuv420p(tv, bt709), 1920x1080 [SAR 1:1 DAR 16:9], 1045 kb/s, 23.98 fps, 23.98 tbr, 24k tbn (default)
    Metadata:
      handler_name    : ISO Media file produced by Google Inc.
  Stream #0:1[0x2](eng): Audio: aac (LC) (mp4a / 0x6134706D), 44100 Hz, stereo, fltp, 128 kb/s (default)
    Metadata:
      handler_name    : ISO Media file produced by Google Inc.
Stream mapping:
  Stream #0:0 -> #0:0 (av1 (libdav1d) -> h264 (libx264))
  Stream #0:1 -> #0:1 (aac (native) -> aac (native))
Press [q] to stop, [?] for help
[libx264 @ 0xb3d049180] using SAR=1/1
[libx264 @ 0xb3d049180] using cpu capabilities: ARMv8 NEON DotProd I8MM
[libx264 @ 0xb3d049180] profile High, level 4.0, 4:2:0, 8-bit
[libx264 @ 0xb3d049180] 264 - core 165 r3222 b35605a - H.264/MPEG-4 AVC codec - Copyleft 2003-2025 - http://www.videolan.org/x264.html - options: cabac=1 ref=1 deblock=1:0:0 analyse=0x3:0x113 me=hex subme=2 psy=1 psy_rd=1.00:0.00 mixed_ref=0 me_range=16 chroma_me=1 trellis=0 8x8dct=1 cqm=0 deadzone=21,11 fast_pskip=1 chroma_qp_offset=0 threads=15 lookahead_threads=5 sliced_threads=0 nr=0 decimate=1 interlaced=0 bluray_compat=0 constrained_intra=0 bframes=3 b_pyramid=2 b_adapt=1 b_bias=0 direct=1 weightb=1 open_gop=0 weightp=1 keyint=250 keyint_min=23 scenecut=40 intra_refresh=0 rc_lookahead=10 rc=crf mbtree=1 crf=20.0 qcomp=0.60 qpmin=0 qpmax=69 qpstep=4 ip_ratio=1.40 aq=1:1.00
Output #0, mp4, to '/Users/edrlu/Documents/Cerebra/data/2026-06-21T14-45-00-067Z/.floor.91808.ayndb.tmp.mp4':
  Metadata:
    major_brand     : isom
    minor_version   : 512
    compatible_brands: isomav01iso2mp41
    encoder         : Lavf62.12.100
  Stream #0:0(und): Video: h264 (avc1 / 0x31637661), yuv420p(tv, bt709, progressive), 1920x1080 [SAR 1:1 DAR 16:9], q=2-31, 23.98 fps, 24k tbn (default)
    Metadata:
      encoder         : Lavc62.28.100 libx264
      handler_name    : ISO Media file produced by Google Inc.
    Side data:
      CPB properties: bitrate max/min/avg: 0/0/0 buffer size: 0 vbv_delay: N/A
  Stream #0:1(eng): Audio: aac (LC) (mp4a / 0x6134706D), 44100 Hz, stereo, fltp, 128 kb/s (default)
    Metadata:
      encoder         : Lavc62.28.100 aac
      handler_name    : ISO Media file produced by Google Inc.
frame=   41 fps=0.0 q=25.0 size=     512KiB time=00:00:01.62 bitrate=2578.8kbits/s speed=3.25x elapsed=0:00:00.50    frame=   68 fps= 68 q=25.0 size=     512KiB time=00:00:02.75 bitrate=1523.8kbits/s speed=2.74x elapsed=0:00:01.00    [mp4 @ 0xb3cc0f700] Starting second pass: moving the moov atom to the beginning of the file
[out#0/mp4 @ 0xb3cc009c0] video:925KiB audio:80KiB subtitle:0KiB other streams:0KiB global headers:0KiB muxing overhead: 0.520012%
frame=  120 fps= 94 q=-1.0 Lsize=    1011KiB time=00:00:04.92 bitrate=1682.6kbits/s speed=3.86x elapsed=0:00:01.27    
[libx264 @ 0xb3d049180] frame I:4     Avg QP: 8.40  size: 71391
[libx264 @ 0xb3d049180] frame P:31    Avg QP:14.10  size: 15048
[libx264 @ 0xb3d049180] frame B:85    Avg QP:16.32  size:  2293
[libx264 @ 0xb3d049180] consecutive B-frames:  4.2%  3.3%  2.5% 90.0%
[libx264 @ 0xb3d049180] mb I  I16..4: 70.0% 14.4% 15.6%
[libx264 @ 0xb3d049180] mb P  I16..4:  5.6%  1.6%  1.0%  P16..4: 10.1%  4.0%  1.9%  0.0%  0.0%    skip:75.7%
[libx264 @ 0xb3d049180] mb B  I16..4:  0.3%  0.1%  0.0%  B16..8:  3.6%  0.9%  0.2%  direct: 1.2%  skip:93.8%  L0:44.3% L1:40.0% BI:15.7%
[libx264 @ 0xb3d049180] 8x8 transform intra:16.2% inter:14.5%
[libx264 @ 0xb3d049180] coded y,uvDC,uvAC intra: 26.0% 27.7% 19.7% inter: 1.4% 2.2% 0.5%
[libx264 @ 0xb3d049180] i16 v,h,dc,p: 72% 16%  6%  5%
[libx264 @ 0xb3d049180] i8 v,h,dc,ddl,ddr,vr,hd,vl,hu: 21% 15% 37%  2%  8%  5%  5%  4%  3%
[libx264 @ 0xb3d049180] i4 v,h,dc,ddl,ddr,vr,hd,vl,hu: 29% 19% 20%  3%  8%  5%  5%  6%  5%
[libx264 @ 0xb3d049180] i8c dc,h,v,p: 74%  9% 13%  4%
[libx264 @ 0xb3d049180] Weighted P-Frames: Y:0.0% UV:0.0%
[libx264 @ 0xb3d049180] kb/s:1513.65
[aac @ 0xb3d049c00] Qavg: 1796.190

[2026-06-21T14:45:01.474Z] queued provider=seedance agent=codex duration=5s source=source_1782053033981_afv1gg frame=frames_1782053056751_u30az1 slot=0:00–0:05 · take 3
[2026-06-21T15:03:31.120Z] /complete received clip=2360647B; merging replace=[0.000, 5.000]
[2026-06-21T15:03:31.124Z] archived generated take → data/2026-06-21T14-45-00-067Z/take_3.mp4
[2026-06-21T15:03:31.126Z] probe-source-before-merge START: ffprobe -v error -show_entries stream=codec_type,width,height,r_frame_rate:format=duration -of json /Users/edrlu/Documents/Cerebra/regen/sources/source_1782053033981_afv1gg/source.mp4
[2026-06-21T15:03:31.152Z] probe-source-before-merge OK in 0.03s
[2026-06-21T15:03:31.152Z] probe-generated-clip START: ffprobe -v error -show_entries stream=codec_type,width,height,r_frame_rate:format=duration -of json /Users/edrlu/Documents/Cerebra/regen/job_1782053100112_cut8p7/clip.mp4
[2026-06-21T15:03:31.175Z] probe-generated-clip OK in 0.02s
[2026-06-21T15:03:31.175Z] merge plan: source=1920x1080 fps=24000/1001 duration=30.093s audio=true; clip=1280x720 duration=5.062s audio=true; replace=[0.000, 5.000], segments=2
[2026-06-21T15:03:31.176Z] merge-ffmpeg START: ffmpeg -y -i /Users/edrlu/Documents/Cerebra/regen/sources/source_1782053033981_afv1gg/source.mp4 -i /Users/edrlu/Documents/Cerebra/regen/job_1782053100112_cut8p7/clip.mp4 -filter_complex [1:v]scale=1920:1080:force_original_aspect_ratio=decrease,pad=1920:1080:(ow-iw)/2:(oh-ih)/2,setsar=1,fps=24000/1001,format=yuv420p,setpts=PTS-STARTPTS[v1];[1:a]aresample=async=1,asetpts=PTS-STARTPTS[a1];[0:v]trim=start=5.000,setpts=PTS-STARTPTS[v2];[0:a]atrim=start=5.000,asetpts=PTS-STARTPTS[a2];[v1][a1][v2][a2]concat=n=2:v=1:a=1[vout][aout] -map [vout] -map [aout] -c:v libx264 -pix_fmt yuv420p -preset veryfast -crf 20 -c:a aac -movflags +faststart /Users/edrlu/Documents/Cerebra/regen/job_1782053100112_cut8p7/final.mp4
[2026-06-21T15:03:34.245Z] merge-ffmpeg OK in 3.07s
stderr:
me    : SoundHandler
Stream mapping:
  Stream #0:0 (libdav1d) -> trim:default
  Stream #0:1 (aac) -> atrim:default
  Stream #1:0 (h264) -> scale:default
  Stream #1:1 (aac) -> aresample:default
  concat -> Stream #0:0 (libx264)
  concat -> Stream #0:1 (aac)
Press [q] to stop, [?] for help
[libx264 @ 0x7f4c71f80] using SAR=1/1
[libx264 @ 0x7f4c71f80] using cpu capabilities: ARMv8 NEON DotProd I8MM
[libx264 @ 0x7f4c71f80] profile High, level 4.0, 4:2:0, 8-bit
[libx264 @ 0x7f4c71f80] 264 - core 165 r3222 b35605a - H.264/MPEG-4 AVC codec - Copyleft 2003-2025 - http://www.videolan.org/x264.html - options: cabac=1 ref=1 deblock=1:0:0 analyse=0x3:0x113 me=hex subme=2 psy=1 psy_rd=1.00:0.00 mixed_ref=0 me_range=16 chroma_me=1 trellis=0 8x8dct=1 cqm=0 deadzone=21,11 fast_pskip=1 chroma_qp_offset=0 threads=15 lookahead_threads=5 sliced_threads=0 nr=0 decimate=1 interlaced=0 bluray_compat=0 constrained_intra=0 bframes=3 b_pyramid=2 b_adapt=1 b_bias=0 direct=1 weightb=1 open_gop=0 weightp=1 keyint=250 keyint_min=23 scenecut=40 intra_refresh=0 rc_lookahead=10 rc=crf mbtree=1 crf=20.0 qcomp=0.60 qpmin=0 qpmax=69 qpstep=4 ip_ratio=1.40 aq=1:1.00
Output #0, mp4, to '/Users/edrlu/Documents/Cerebra/regen/job_1782053100112_cut8p7/final.mp4':
  Metadata:
    major_brand     : isom
    minor_version   : 512
    compatible_brands: isomav01iso2mp41
    encoder         : Lavf62.12.100
  Stream #0:0: Video: h264 (avc1 / 0x31637661), yuv420p(tv, bt709/unknown/unknown, progressive), 1920x1080 [SAR 1:1 DAR 16:9], q=2-31, 23.98 fps, 24k tbn
    Metadata:
      encoder         : Lavc62.28.100 libx264
    Side data:
      CPB properties: bitrate max/min/avg: 0/0/0 buffer size: 0 vbv_delay: N/A
  Stream #0:1: Audio: aac (LC) (mp4a / 0x6134706D), 44100 Hz, stereo, fltp, 128 kb/s
    Metadata:
      encoder         : Lavc62.28.100 aac
frame=   83 fps=0.0 q=25.0 size=    1280KiB time=00:00:03.42 bitrate=3066.0kbits/s speed=6.77x elapsed=0:00:00.50    frame=  137 fps=136 q=25.0 size=    2048KiB time=00:00:05.63 bitrate=2979.7kbits/s speed=5.58x elapsed=0:00:01.00    frame=  252 fps=167 q=25.0 size=    2816KiB time=00:00:10.42 bitrate=2212.4kbits/s speed=6.89x elapsed=0:00:01.51    frame=  453 fps=225 q=25.0 size=    5376KiB time=00:00:18.81 bitrate=2341.3kbits/s speed=9.34x elapsed=0:00:02.01    frame=  590 fps=234 q=25.0 size=    7424KiB time=00:00:24.52 bitrate=2479.9kbits/s speed=9.73x elapsed=0:00:02.51    frame=  706 fps=234 q=25.0 size=   10240KiB time=N/A bitrate=N/A speed=N/A elapsed=0:00:03.02    [mp4 @ 0x7f4c1c780] Starting second pass: moving the moov atom to the beginning of the file
[out#0/mp4 @ 0x7f4c18900] video:10188KiB audio:483KiB subtitle:0KiB other streams:0KiB global headers:0KiB muxing overhead: 0.223072%
frame=  721 fps=237 q=-1.0 Lsize=   10695KiB time=00:00:29.98 bitrate=2921.6kbits/s speed=9.87x elapsed=0:00:03.03    
[libx264 @ 0x7f4c71f80] frame I:16    Avg QP: 9.30  size: 84325
[libx264 @ 0x7f4c71f80] frame P:216   Avg QP:16.06  size: 27395
[libx264 @ 0x7f4c71f80] frame B:489   Avg QP:19.20  size:  6473
[libx264 @ 0x7f4c71f80] consecutive B-frames:  5.7%  9.4%  6.7% 78.2%
[libx264 @ 0x7f4c71f80] mb I  I16..4: 62.9% 16.7% 20.4%
[libx264 @ 0x7f4c71f80] mb P  I16..4: 11.7%  8.3%  1.9%  P16..4: 14.7%  8.0%  4.1%  0.0%  0.0%    skip:51.3%
[libx264 @ 0x7f4c71f80] mb B  I16..4:  1.0%  1.0%  0.1%  B16..8:  9.2%  2.8%  0.4%  direct: 3.2%  skip:82.2%  L0:37.2% L1:46.2% BI:16.6%
[libx264 @ 0x7f4c71f80] 8x8 transform intra:34.5% inter:34.2%
[libx264 @ 0x7f4c71f80] coded y,uvDC,uvAC intra: 34.4% 34.6% 15.7% inter: 4.2% 5.6% 0.4%
[libx264 @ 0x7f4c71f80] i16 v,h,dc,p: 71% 16%  7%  6%
[libx264 @ 0x7f4c71f80] i8 v,h,dc,ddl,ddr,vr,hd,vl,hu: 33% 19% 20%  2%  6%  6%  5%  5%  4%
[libx264 @ 0x7f4c71f80] i4 v,h,dc,ddl,ddr,vr,hd,vl,hu: 28% 17% 16%  3% 10%  7%  6%  6%  6%
[libx264 @ 0x7f4c71f80] i8c dc,h,v,p: 64% 12% 19%  5%
[libx264 @ 0x7f4c71f80] Weighted P-Frames: Y:1.4% UV:0.9%
[libx264 @ 0x7f4c71f80] kb/s:2775.17
[aac @ 0x7f4c72680] Qavg: 746.172

[2026-06-21T15:03:34.246Z] /complete merge OK in 3.1s; final=/Users/edrlu/Documents/Cerebra/regen/job_1782053100112_cut8p7/final.mp4
